<?xml version="1.0" standalone="no"?><!DOCTYPE svg PUBLIC "-//W3C//DTD SVG 1.1//EN" "http://www.w3.org/Graphics/SVG/1.1/DTD/svg11.dtd"><svg t="1587187787517" class="icon" viewBox="0 0 1024 1024" version="1.1" xmlns="http://www.w3.org/2000/svg" p-id="18604" width="200" height="200" xmlns:xlink="http://www.w3.org/1999/xlink"><defs><style type="text/css"></style></defs><path d="M710.656 272.384c-4.096-1.024-435.712-100.352-506.88-115.2-47.616-10.24-57.856-37.376-59.904-52.736V92.16c0-8.192-6.144-14.848-14.848-15.872-8.192-0.512-15.36 5.12-16.896 13.312-0.512 4.608-1.024 10.752 0 16.896v703.488c0 65.024 68.096 89.088 71.168 90.112 0.512 0 1.024 0.512 1.536 0.512L703.488 1018.88c1.024 0.512 2.56 0.512 3.584 0.512 3.584 0 7.168-1.024 9.728-3.584 3.584-3.072 6.144-7.68 6.144-12.288V288.256c-0.512-7.68-5.632-13.824-12.288-15.872z" fill="#3740FF" p-id="18605"></path><path d="M845.824 155.136c-5.12-1.024-472.064-105.472-565.248-130.048C201.728 3.584 141.824 16.896 120.32 60.416c-5.12 10.24-7.168 22.528-8.192 30.208-1.024 8.704 5.632 16.384 14.336 16.896h1.536c8.192 0 14.848-6.144 15.36-14.336 0.512-7.68 2.56-14.336 4.608-19.456 14.336-28.672 61.952-35.84 123.904-18.944 84.992 22.016 478.72 110.592 553.984 126.976v167.424c0 8.704 7.168 15.872 15.872 15.872 8.704 0 15.872-7.168 15.872-15.872V170.496c0.512-7.68-4.608-13.824-11.776-15.36zM842.24 594.432c-8.704 0-15.872 7.168-15.872 15.872V885.76c0 8.704 7.168 15.872 15.872 15.872 8.704 0 15.872-7.168 15.872-15.872v-275.456c0-8.704-7.168-15.872-15.872-15.872z" fill="#3740FF" p-id="18606"></path><path d="M695.808 180.736l13.312 7.68c0.512 0.512 1.536 0.512 2.048 0.512l15.36-3.072c2.048-0.512 3.584 1.024 3.072 2.048l-5.12 10.752c0 0.512 0 1.024 0.512 1.536l10.24 9.728c1.024 1.024 0 2.56-2.048 2.56l-16.384-1.024c-0.512 0-1.536 0-2.048 0.512l-9.216 9.216c-1.024 1.024-3.584 0.512-4.096-0.512l-5.12-11.264c0-0.512-1.024-1.024-1.536-1.024l-15.872-4.096c-2.048-0.512-2.048-2.048-0.512-3.072l13.312-6.144c0.512-0.512 1.024-0.512 1.024-1.536l-0.512-11.776c0-1.024 2.048-2.048 3.584-1.024zM265.728 125.952l3.072-6.144c0.512-0.512 0.512-1.536 0-2.048l-3.584-5.632c-1.024-1.536 0.512-4.096 2.56-3.584l7.168 0.512c1.024 0 1.536 0 2.56-1.024l5.12-5.12c1.536-1.536 4.096-1.024 4.608 1.024l1.024 6.656c0 1.024 0.512 1.536 1.536 1.536l6.656 2.56c2.048 1.024 2.048 3.584 0 4.608l-6.144 3.584c-1.024 0.512-1.536 1.024-1.536 2.048l-1.024 6.656c-0.512 2.048-3.072 3.072-4.608 1.536l-5.12-4.608c-0.512-0.512-1.536-1.024-2.56-0.512l-7.168 1.536c-2.048 0-3.584-1.536-2.56-3.584zM798.72 248.32l-2.56 5.632-1.536 1.536-5.12 1.536c-1.536 0.512-2.048 2.56-1.024 4.096l3.584 3.584c0.512 0.512 0.512 1.024 0.512 2.048l-1.024 6.144c-0.512 2.048 1.536 3.072 2.56 2.048l4.608-3.072c0.512-0.512 1.024-0.512 2.048 0l4.608 2.56c1.536 0.512 3.072-1.024 3.072-2.56l-1.024-5.632c0-0.512 0-1.536 0.512-2.048l3.584-4.608c1.024-1.536 0.512-3.584-1.024-3.584l-5.12-0.512c-0.512 0-1.024-0.512-1.536-1.024l-2.048-5.12c-0.512-3.072-2.56-3.072-3.072-1.024zM801.792 692.736l-7.68 6.656c-1.024 1.024-1.536 2.048-1.536 3.584l-1.024 11.776c0 3.584-3.584 5.632-5.632 3.584l-6.656-7.168c-1.024-1.024-2.048-1.024-3.072-0.512l-8.704 3.584c-2.56 1.024-5.12-2.048-4.096-5.632l3.584-10.752c0.512-1.536 0.512-3.072 0-4.096l-4.608-9.216c-1.536-3.072 0.512-7.168 3.072-6.656h9.216c1.024 0 2.048-0.512 3.072-2.048l6.144-9.216c2.048-3.072 5.12-2.048 5.632 1.024l2.048 11.264c0 1.536 1.024 2.56 2.048 3.072l8.192 3.584c2.56 0.512 2.56 5.12 0 7.168zM739.84 847.36l3.072 5.632c0.512 0.512 0.512 1.536 0 2.56l-2.56 7.68c-1.024 2.048 0.512 4.096 2.56 3.072l6.656-3.584c1.024-0.512 1.536-0.512 2.048 0l4.608 3.584c1.536 1.024 4.096-0.512 4.096-3.072l0.512-7.68c0-1.024 0.512-2.048 1.024-2.56l5.632-5.12c1.536-1.536 1.536-4.608 0-5.12l-6.144-1.536c-0.512 0-1.024-0.512-1.536-1.536l-1.024-6.656c-0.512-2.048-3.072-2.048-4.096 0l-4.608 6.656c-0.512 1.024-1.536 1.536-2.048 1.536l-6.656 1.024c-1.024 0.512-2.56 3.584-1.536 5.12zM666.112 539.136c28.672-1.536 65.536-8.704 103.936-20.48 37.888-11.776 72.704-26.112 97.28-40.96 1.536-1.024 3.072-2.048 4.608-2.56-0.512-9.216-2.048-18.944-4.608-28.16-18.432-59.904-81.92-94.208-141.824-75.776-59.904 18.432-94.208 81.92-75.776 141.824 3.072 9.216 6.656 17.92 11.776 26.112 1.024 0.512 2.56 0.512 4.608 0zM777.728 544.768c-32.768 9.728-64.512 17.408-93.696 22.016 28.672 24.576 68.608 34.304 107.008 22.528 38.4-11.776 66.048-41.984 76.288-78.336-26.624 12.288-57.344 23.552-89.6 33.792z" fill="#3740FF" p-id="18607"></path><path d="M859.648 417.28c3.584 5.632 6.656 11.776 9.216 17.92 21.504 0 35.328 4.608 37.888 12.8 6.144 19.968-54.272 55.808-134.144 79.872-80.384 24.576-150.016 28.16-156.16 8.192-2.56-8.192 6.656-19.456 24.576-31.744-1.536-6.656-2.048-13.312-2.56-19.968-45.056 23.04-71.68 46.08-67.072 61.952 7.68 26.112 98.816 20.992 203.776-10.24 104.448-31.744 182.784-78.336 175.104-104.448-5.12-15.872-40.448-20.48-90.624-14.336z" fill="#3740FF" p-id="18608"></path><path d="M425.984 175.616c8.704 13.824 22.016 30.72 38.4 46.592 15.872 15.872 32.768 29.184 47.104 37.888 1.024 0.512 1.536 1.024 2.56 1.536 4.608-2.56 8.704-6.144 12.8-10.24 25.088-25.6 25.088-66.56-0.512-91.648-25.6-25.088-66.56-25.088-91.648 0.512-4.096 4.096-7.168 8.192-9.728 12.8 0 1.024 0.512 1.536 1.024 2.56zM453.632 232.96c-13.824-13.824-26.112-27.648-36.352-40.96-4.608 20.992 1.536 43.52 17.92 59.904 16.384 16.384 38.912 22.016 59.904 17.408-13.824-10.24-27.648-22.528-41.472-36.352z" fill="#3740FF" p-id="18609"></path><path d="M539.648 239.616c-2.048 3.072-4.096 6.656-6.656 9.216 5.632 10.752 7.168 18.944 3.584 22.528-8.192 8.192-42.496-12.288-76.8-45.568-33.792-33.792-54.784-67.584-46.592-76.288 3.584-3.584 11.776-2.048 22.528 3.584 3.072-2.56 6.144-4.608 9.216-6.656-23.552-16.384-42.496-23.552-49.152-16.896-10.752 10.752 16.384 55.296 60.416 99.328s89.088 70.656 99.84 59.392c7.68-6.144 0.512-25.088-16.384-48.64z" fill="#3740FF" p-id="18610"></path></svg>